<svg width="66" height="46" viewBox="0 0 66 46" fill="none" xmlns="http://www.w3.org/2000/svg">
<path d="M0 0H66V46H0V0Z" fill="#00AFDB"/>
<path fill-rule="evenodd" clip-rule="evenodd" d="M41.5248 18.5812C41.5248 18.3031 41.4182 18.0249 41.2263 17.8246L39.7764 16.3116C39.5845 16.1112 39.3179 16 39.0514 16C38.7849 16 38.5183 16.1112 38.3264 16.3116L31.3327 23.6215L28.1983 20.3391C28.0064 20.1389 27.7399 20.0276 27.4734 20.0276C27.2068 20.0276 26.9403 20.1389 26.7484 20.3391L25.2985 21.8524C25.1066 22.0526 25 22.3307 25 22.609C25 22.887 25.1066 23.1651 25.2985 23.3655L30.6078 28.9064C30.7997 29.1066 31.0662 29.2179 31.3327 29.2179C31.5993 29.2179 31.8657 29.1066 32.0576 28.9064L41.2263 19.3378C41.4182 19.1376 41.5248 18.8595 41.5248 18.5812Z" fill="white"/>
</svg>
